<?xml version="1.0" ?><svg fill="none" height="24" viewBox="0 0 24 24" width="24" xmlns="http://www.w3.org/2000/svg"><path clip-rule="evenodd" d="M12 3C12.5523 3 13 3.44772 13 4L13 12.5858L15.2929 10.2929C15.6834 9.90237 16.3166 9.90237 16.7071 10.2929C17.0976 10.6834 17.0976 11.3166 16.7071 11.7071L12.7071 15.7071C12.5196 15.8946 12.2652 16 12 16C11.7348 16 11.4804 15.8946 11.2929 15.7071L7.29289 11.7071C6.90237 11.3166 6.90237 10.6834 7.29289 10.2929C7.68342 9.90237 8.31658 9.90237 8.70711 10.2929L11 12.5858L11 4C11 3.44772 11.4477 3 12 3ZM4 9C4.55228 9 5 9.44772 5 10V18C5 18.5523 5.44772 19 6 19H18C18.5523 19 19 18.5523 19 18V10C19 9.44772 19.4477 9 20 9C20.5523 9 21 9.44772 21 10V18C21 19.6569 19.6569 21 18 21H6C4.34315 21 3 19.6569 3 18V10C3 9.44772 3.44772 9 4 9Z" fill="black" fill-rule="evenodd"/></svg>